<svg version="1.1" id="Layer_1" xmlns="http://www.w3.org/2000/svg" xmlns:xlink="http://www.w3.org/1999/xlink" x="0px" y="0px"
	 width="100%" viewBox="0 0 800 768" enable-background="new 0 0 800 768" xml:space="preserve">
<path fill="#000000" opacity="1.000000" stroke="none" 
	d="
M148.000122,131.619919 
	C218.164398,131.621384 287.828674,131.623688 357.492950,131.623062 
	C359.325958,131.623047 361.161072,131.640839 362.991577,131.563858 
	C366.752869,131.405624 368.919678,129.717957 368.663116,125.636658 
	C368.548370,123.810867 368.652344,121.971405 368.654694,120.138153 
	C368.664276,112.670570 368.663940,112.661285 376.368530,112.660217 
	C407.367462,112.655899 438.366425,112.663315 469.365356,112.653175 
	C476.285217,112.650917 476.583252,112.323486 476.656036,105.249901 
	C476.775513,93.641975 476.775482,93.644325 488.247559,93.644859 
	C551.912048,93.647812 615.576538,93.646919 679.241028,93.655365 
	C686.310669,93.656303 686.338196,93.679893 686.338806,100.742088 
	C686.346008,184.072571 686.346130,267.403076 686.341553,350.733551 
	C686.341187,357.352264 686.318298,357.352264 679.795471,357.381653 
	C665.344177,357.446777 665.348389,357.446777 665.348511,371.731415 
	C665.349548,472.894623 665.348816,574.057800 665.346863,675.221008 
	C665.346863,677.054138 665.269165,678.889038 665.325623,680.720032 
	C665.402832,683.222717 664.299927,684.448853 661.754333,684.340210 
	C660.756775,684.297668 659.755066,684.362244 658.755249,684.362305 
	C600.423889,684.366699 542.092590,684.371948 483.761230,684.368713 
	C476.670288,684.368286 476.667145,684.346436 476.661102,677.244812 
	C476.655579,670.745056 476.397369,664.231445 476.742493,657.750122 
	C476.998505,652.941711 474.609131,652.317810 470.673157,652.329895 
	C439.507874,652.425415 408.342163,652.392395 377.176605,652.397827 
	C375.676697,652.398071 374.172638,652.315186 372.677795,652.399658 
	C369.651672,652.570740 368.313141,651.125061 368.681915,648.203918 
	C369.306824,643.254456 366.537354,642.352783 362.393158,642.360229 
	C322.573914,642.432312 282.754395,642.364014 242.935211,642.443848 
	C209.774643,642.510315 176.614426,642.739746 143.453888,642.848572 
	C138.461166,642.864868 133.467728,642.532410 128.474365,642.524719 
	C125.724335,642.520508 124.476700,641.418457 124.654190,638.642151 
	C124.749672,637.148743 124.656319,635.643555 124.656326,634.143677 
	C124.656799,544.646729 124.659653,455.149780 124.656868,365.652832 
	C124.656609,357.386292 124.640198,357.386292 116.474686,357.385468 
	C108.660973,357.384674 108.653862,357.384674 108.654076,349.509308 
	C108.655975,279.345032 108.659416,209.180771 108.666138,139.016510 
	C108.666847,131.648773 108.678009,131.646225 116.004753,131.640106 
	C126.503204,131.631348 137.001648,131.626740 148.000122,131.619919 
M577.334717,585.239136 
	C571.629578,586.097534 569.642334,592.613647 563.732788,594.412170 
	C563.830261,590.508240 566.149048,588.600708 568.189575,586.563660 
	C575.011963,579.752869 582.557007,573.519470 588.511414,566.021606 
	C596.459473,556.013367 603.177856,545.028503 610.423218,534.462341 
	C612.287781,531.743225 614.662292,529.634033 618.233826,527.119019 
	C617.150696,531.388855 615.104858,534.048218 615.042969,538.256714 
	C617.693054,532.784119 621.699951,529.048950 622.377014,523.138489 
	C620.984497,524.138855 620.893555,526.269531 619.046021,525.278992 
	C618.547913,525.011902 617.961670,524.273132 617.987305,523.780579 
	C618.076172,522.073792 618.657654,520.066711 620.295776,519.696899 
	C622.805115,519.130310 624.492371,517.729858 625.895935,515.874390 
	C638.422546,499.314880 646.606018,480.568268 651.456665,460.615448 
	C655.352478,444.589844 658.459167,428.281067 656.837646,411.457367 
	C656.065857,403.450256 656.704956,395.307220 656.704956,386.833771 
	C655.209473,388.450470 656.394653,391.162598 653.719788,391.375793 
	C652.526489,391.470917 651.813965,390.820038 651.748657,389.633575 
	C651.383423,382.993347 649.617798,376.708954 647.767761,370.327393 
	C645.012085,360.821838 646.590820,350.750732 645.471497,341.043793 
	C643.145142,320.869293 637.600464,301.304291 631.057495,282.168427 
	C627.588562,272.023010 621.923767,262.580292 616.800415,253.062500 
	C611.856750,243.878433 606.341431,235.001724 601.064636,225.997360 
	C596.742554,218.621964 591.386719,212.061752 585.429810,205.944427 
	C591.956543,214.836243 598.276855,223.753448 599.338745,235.389084 
	C591.545593,223.046219 580.345398,213.501083 572.542969,203.021011 
	C572.675476,199.922623 574.574280,202.298187 574.644592,200.827332 
	C572.973511,195.506332 567.236938,199.904129 564.905701,196.318253 
	C566.776733,193.648285 570.327332,196.202286 572.172607,193.615997 
	C569.913330,189.320648 565.626465,187.570786 561.506287,184.661682 
	C556.879822,182.978577 553.206299,179.816299 548.651672,175.494507 
	C550.649109,182.144043 555.282959,184.103363 559.225464,187.347839 
	C558.914856,190.298767 556.612366,188.633011 555.843079,188.332291 
	C552.436829,187.000763 547.401062,188.698273 545.762695,184.414337 
	C544.727234,181.706879 543.143982,180.299850 540.958801,179.163132 
	C532.556519,174.792084 524.450806,169.897873 515.882935,165.797043 
	C491.718506,154.231216 467.525452,143.546265 439.916687,142.636520 
	C431.443268,142.357285 422.695770,141.183563 414.131592,140.685349 
	C405.785858,140.199860 396.925934,137.928360 388.812347,142.671158 
	C387.643005,143.354706 386.157104,142.833694 384.949310,142.242599 
	C383.029663,141.303146 381.126038,141.677643 379.112152,141.790787 
	C376.062714,141.962097 373.233246,143.908630 370.391266,143.521698 
	C363.076721,142.525803 356.532349,146.182831 349.282654,146.197739 
	C340.861877,146.215042 332.699646,149.221985 324.786255,152.376144 
	C320.936798,153.910446 316.998291,155.293747 312.997925,156.363190 
	C301.450317,159.450256 292.779816,167.556992 283.003082,173.644699 
	C277.388336,177.140869 273.073700,182.314636 265.900177,183.693970 
	C262.469513,184.353638 259.083923,184.956070 255.611069,185.470840 
	C251.025558,186.150543 247.040314,188.904190 243.265945,191.873795 
	C245.822983,200.132599 238.258194,200.838837 234.137802,204.146988 
	C234.531769,208.338852 233.535095,210.990051 230.117264,211.939072 
	C223.268936,213.840622 219.231750,219.202026 214.176224,223.455276 
	C210.074905,226.905746 209.591202,232.112381 206.408142,235.919098 
	C203.115936,239.856369 200.211411,244.154144 197.457260,248.497116 
	C192.313812,256.607788 188.573914,265.493317 185.028351,274.329742 
	C178.989532,289.380035 170.166779,303.419159 167.916031,319.920105 
	C167.696915,321.526520 167.753128,323.959381 164.281937,324.773071 
	C167.760468,309.777832 171.837921,295.602753 176.207947,281.497559 
	C165.994797,297.074280 163.419449,315.358032 158.376068,332.335144 
	C155.754837,332.528168 156.298523,329.904938 154.471649,330.127930 
	C152.499985,330.965149 152.661606,332.932526 152.104416,334.649384 
	C150.744476,338.839752 151.866806,343.321259 149.269897,347.540253 
	C144.797424,354.806244 140.095505,361.732849 145.824539,371.626465 
	C149.429413,377.851837 154.248505,381.025085 159.650604,384.299927 
	C161.080811,385.166962 163.204147,385.881531 164.943130,385.094269 
	C171.646332,382.059784 178.506668,384.253326 185.058487,384.983429 
	C198.022858,386.428253 210.161621,384.421356 221.262070,378.080505 
	C227.094330,374.748993 232.083023,369.774994 231.775024,361.795654 
	C231.579926,356.741211 229.226257,352.552216 226.963638,348.349152 
	C225.217300,345.105072 224.973297,341.903107 225.071335,338.287170 
	C225.309586,329.499969 229.568298,321.721252 230.779449,313.210266 
	C231.128510,310.757385 231.686844,308.296631 232.479233,305.950958 
	C236.356354,294.473511 241.863007,283.695648 246.958511,272.744568 
	C251.760147,262.425018 258.397827,253.096207 266.178558,245.107956 
	C272.423096,238.696808 278.701843,231.882828 286.421783,227.055649 
	C288.614899,225.684326 288.629700,223.252991 291.216064,221.910583 
	C300.449615,217.118011 310.437653,213.456055 318.019501,205.780945 
	C320.660522,203.107407 324.500580,201.828934 328.134094,202.674164 
	C330.833252,203.302032 332.936584,202.238953 335.311707,202.081650 
	C338.821991,201.849213 340.524323,197.775345 343.404968,197.883972 
	C349.283875,198.105682 354.286102,196.173996 359.446106,193.908554 
	C362.729431,192.467041 366.418945,190.933945 369.857117,191.079193 
	C376.459564,191.358124 382.886993,191.130020 389.107178,188.959137 
	C391.195160,188.230423 393.333374,188.181915 395.344147,187.648956 
	C403.196899,185.567612 411.141449,188.111984 418.966431,186.785767 
	C420.676086,186.496033 422.251617,187.006531 423.740997,187.875656 
	C425.344269,188.811279 427.099121,189.433029 428.955719,189.376236 
	C441.424011,188.994675 466.466705,192.504608 476.222961,196.881607 
	C483.013885,199.928268 490.276276,201.638763 496.869415,205.329346 
	C503.114929,208.825333 509.828918,210.677979 516.038208,215.256577 
	C527.277588,223.544312 536.950256,233.331528 547.129944,242.595947 
	C560.138000,254.434387 568.782593,269.809387 577.811829,284.659515 
	C589.304443,303.561096 595.642700,324.383636 599.131653,346.203552 
	C601.833984,363.103424 603.209656,380.134308 604.932861,397.125305 
	C606.254944,410.161377 602.388916,422.788116 600.133301,435.478088 
	C599.123230,441.160553 597.356934,446.733124 596.155396,452.435364 
	C593.692505,464.124115 590.791443,475.735565 583.681213,485.804626 
	C581.032104,489.556122 579.154846,493.869598 577.073608,498.001373 
	C573.653503,504.791260 571.189453,512.242920 566.810913,518.328064 
	C560.013000,527.775513 552.230896,536.539001 543.917358,544.796631 
	C530.000122,558.620117 515.502380,571.623779 497.336792,579.709473 
	C488.068085,583.835083 478.676422,587.494141 468.375702,588.557190 
	C463.331329,589.077881 458.156036,589.845825 453.381042,591.969666 
	C446.145996,595.187683 438.417511,596.191101 430.640533,596.485840 
	C423.182861,596.768433 415.701294,596.567932 408.233765,596.411194 
	C394.563446,596.124268 381.276703,594.059204 368.052490,590.109924 
	C356.277649,586.593384 344.912628,581.604797 332.796448,579.357788 
	C305.837616,574.358215 281.941498,563.070618 261.172913,545.211731 
	C258.155670,542.617188 254.100281,540.774780 251.937653,537.914185 
	C246.736511,531.034302 239.784409,525.748169 235.069412,518.555725 
	C230.474762,511.546753 222.893295,506.816315 220.277924,498.158722 
	C219.610458,495.949310 217.596420,492.701721 213.909271,492.174744 
	C213.213654,492.571106 214.099167,494.329926 212.383865,494.229553 
	C210.202759,492.320190 208.723785,489.718872 207.075241,487.240662 
	C206.275070,486.037720 205.811844,484.372498 204.062057,484.213684 
	C203.573593,484.169342 202.675934,484.750732 202.556381,485.201599 
	C202.058472,487.079437 204.053009,487.539551 204.759491,488.734100 
	C206.088669,490.981598 209.851044,491.546844 209.456757,494.744781 
	C209.064224,497.928650 210.274475,499.284515 213.152939,500.112457 
	C215.854904,500.889648 217.217545,503.328522 215.431274,505.460205 
	C212.807037,508.591949 214.685059,510.398865 216.167160,512.862488 
	C218.137344,516.137512 221.039322,519.029114 221.542511,523.304321 
	C219.057739,523.822998 216.626175,523.443115 215.677414,521.913147 
	C212.058441,516.077209 204.515350,513.334839 203.191940,505.663818 
	C202.854034,503.705261 200.604233,503.111877 198.652512,503.627380 
	C196.897766,504.090851 197.157120,505.595551 197.516953,506.929321 
	C197.969559,508.607056 199.483932,510.675446 196.827652,511.542450 
	C194.707504,512.234497 193.344345,510.054840 192.685089,508.636414 
	C189.232986,501.209106 182.555374,496.698883 177.357666,490.531586 
	C177.040222,495.921997 179.258606,500.119751 181.017853,504.616425 
	C186.709808,519.165100 194.807739,532.459961 204.053757,544.704895 
	C218.420135,563.731201 235.593552,580.223816 255.658585,593.479675 
	C269.888123,602.880432 285.174347,610.230591 300.612549,617.316223 
	C310.119293,621.679443 320.371918,623.780579 330.253052,627.007874 
	C340.336731,630.301392 350.077301,634.839783 360.328247,637.379700 
	C374.567627,640.907776 388.689667,645.603638 403.493500,646.144470 
	C413.977081,646.527405 424.005890,650.840393 434.590881,649.468872 
	C439.121674,648.881836 443.531372,647.312744 448.064880,646.810181 
	C451.308258,646.450623 454.030762,645.444885 456.916840,643.979858 
	C463.492157,640.642090 470.485565,638.669189 477.823242,637.147095 
	C483.837646,635.899475 490.122681,635.656372 495.949829,633.529602 
	C507.118652,629.453186 518.249329,625.272278 529.387878,621.113525 
	C530.118103,620.840881 530.780945,620.387756 531.473267,620.019592 
	C530.972351,618.990417 529.597229,619.660461 529.483154,618.334473 
	C529.670471,618.033691 529.827148,617.437866 530.197754,617.237183 
	C539.141418,612.395264 547.703125,606.999268 555.694153,600.664734 
	C557.855225,598.951599 560.638428,597.892883 563.283813,596.946960 
	C569.631653,594.677002 574.677979,590.936951 578.640930,584.818054 
	C584.400146,581.287048 588.494934,575.938660 592.704895,570.935486 
	C597.409912,565.343994 602.747131,560.132019 605.531555,552.960083 
	C596.359375,563.648621 587.187195,574.337158 577.334717,585.239136 
M421.355438,395.509064 
	C421.232391,406.498871 421.410156,417.502350 420.912079,428.475159 
	C420.250031,443.060608 418.224426,457.600769 420.206696,472.236877 
	C420.512177,474.492157 420.667480,476.898193 419.395691,479.063202 
	C417.783142,481.808167 419.405151,483.290344 421.352539,484.656158 
	C423.835297,483.692566 423.712402,481.654022 423.666718,479.914825 
	C423.400391,469.775879 423.925293,459.590912 422.419495,449.517090 
	C421.285767,441.932587 424.027710,434.856995 424.863342,427.442474 
	C425.911255,431.403748 426.001343,435.384888 426.424133,439.330414 
	C427.272736,447.249695 425.156799,455.119934 426.186798,463.033142 
	C426.871735,468.295197 426.366425,473.493622 425.766785,478.761139 
	C425.374817,482.204071 425.163025,485.717834 426.443481,489.480225 
	C427.498474,492.580170 430.411682,497.477600 424.459290,500.013336 
	C427.774384,505.568573 431.254578,510.770844 428.236145,517.367310 
	C424.499847,516.544067 426.247040,512.052856 423.256073,510.782623 
	C420.348755,512.003479 419.107025,514.317017 419.376526,517.460510 
	C419.971680,524.401733 420.579712,531.325195 422.955231,537.983398 
	C426.128510,546.877563 432.825684,552.558777 442.035919,551.920654 
	C453.823181,551.104065 465.321503,553.483398 476.974152,553.683716 
	C480.585968,553.745850 484.985016,555.135986 487.686554,552.928162 
	C490.640350,550.514160 493.691986,550.388123 496.770416,550.191772 
	C500.505005,549.953552 503.540985,548.796143 505.962921,546.078735 
	C508.370026,543.377808 511.286377,541.651306 514.748535,540.673706 
	C521.921814,538.648254 523.116638,536.664795 523.716064,529.067627 
	C524.685303,516.784119 522.229248,504.622955 522.725464,492.393890 
	C523.037231,484.708374 520.808350,477.094269 521.876709,469.509918 
	C523.210510,460.040558 522.997925,450.550842 522.265564,441.187927 
	C519.876404,410.644958 520.418274,380.032562 519.503784,349.460388 
	C518.882568,328.691925 520.844788,307.922180 520.798523,287.111450 
	C520.770630,274.555634 519.452209,261.342133 527.611206,250.067398 
	C528.420410,248.949249 528.524170,247.246414 528.731323,245.783234 
	C529.091248,243.241394 528.212891,240.633163 525.974060,239.822006 
	C519.199341,237.367386 513.256042,232.154312 505.614227,232.649475 
	C499.587341,233.039993 493.685394,233.012985 487.646973,232.466736 
	C477.413361,231.541000 467.211151,233.290237 457.059875,234.541321 
	C444.792419,236.053207 432.361420,236.579544 421.379700,243.865021 
	C416.943634,246.807983 415.939697,249.564865 416.694794,254.356750 
	C418.141174,263.535614 419.390137,272.718079 419.414429,282.101227 
	C419.491333,311.822723 418.447357,341.572937 421.560089,371.239258 
	C422.368073,378.939728 420.503662,386.741089 421.355438,395.509064 
M297.666931,427.009216 
	C300.648743,431.883698 301.369202,437.522369 302.986816,443.213776 
	C300.539948,445.082458 298.947815,446.894684 301.777069,450.581573 
	C304.478363,454.101715 304.727386,459.098206 306.490082,463.332947 
	C309.710510,471.069672 307.326904,480.371002 306.947876,488.781464 
	C306.675110,494.835052 300.926208,500.886353 298.519897,507.646149 
	C296.163910,506.270111 294.384399,505.555969 294.290955,502.820831 
	C294.225922,500.916229 292.716736,499.308960 290.479675,499.942566 
	C288.458893,500.514984 285.500610,501.348053 285.848938,503.731873 
	C286.582428,508.751587 284.271088,510.029053 280.249847,509.698822 
	C277.501038,519.489075 279.219757,528.999146 280.341400,538.508484 
	C280.988342,543.993530 284.853973,548.384521 290.050995,549.779480 
	C307.071472,554.347839 324.228210,555.869080 341.809021,553.351135 
	C349.955719,552.184265 358.437073,551.228760 366.306732,555.190430 
	C372.136139,558.125061 373.603516,557.885437 375.720001,551.740845 
	C379.281860,541.400085 378.190674,530.482178 378.913300,519.809082 
	C379.293243,514.197388 377.631958,508.617767 377.629425,502.922607 
	C377.623566,489.766724 378.176941,476.631683 378.474335,463.488678 
	C378.815491,448.414490 377.074402,433.259857 377.968170,418.243164 
	C378.566498,408.190338 375.361389,402.110657 367.375275,396.492493 
	C359.718719,391.106201 350.944153,389.944397 342.587555,388.657318 
	C336.680756,387.747589 329.774689,389.235382 323.464874,390.943207 
	C319.795013,391.936493 315.767700,393.316467 312.212250,392.707214 
	C301.252411,390.829193 290.754211,394.928162 279.935852,394.386078 
	C275.815857,394.179626 274.353455,396.676483 275.354645,401.012695 
	C276.995392,408.118561 279.036072,415.139496 279.739624,422.473877 
	C280.314758,428.469421 280.170685,434.453156 280.381165,440.441010 
	C280.445435,442.270386 280.527283,444.382324 282.981964,444.586273 
	C285.180817,444.768982 286.138306,443.135803 286.742828,441.254272 
	C288.024872,437.264343 288.897217,433.228943 288.688660,428.991364 
	C288.550873,426.191284 288.667084,423.392792 290.571198,420.597382 
	C292.583862,422.987335 295.781647,423.602386 297.666931,427.009216 
M271.347839,340.492157 
	C271.134918,349.674500 271.371521,358.755890 274.908722,367.490234 
	C277.956848,375.016876 283.123260,378.256348 290.996490,376.260620 
	C296.083893,374.971100 301.137299,374.709961 306.310516,374.660065 
	C313.306702,374.592560 320.506226,374.461700 327.042999,372.203705 
	C331.496643,370.665253 335.066559,370.300842 339.314819,372.091339 
	C343.043213,373.662781 347.217773,374.013062 350.684967,371.526611 
	C353.588287,369.444458 356.630066,369.393646 359.728485,369.783325 
	C369.740051,371.042542 377.712036,363.972839 378.896027,353.953278 
	C380.130188,343.508820 378.487396,333.100098 379.670135,322.678040 
	C380.789795,312.811432 380.983063,302.988342 379.369110,292.957092 
	C377.699677,282.581085 378.608765,271.815948 377.440155,261.326813 
	C376.138702,249.645203 371.773956,241.740021 357.101105,245.256638 
	C344.571045,248.259705 332.367676,252.719864 319.130829,252.542130 
	C309.423615,252.411789 299.673157,254.678925 290.196686,250.449738 
	C287.237427,249.129059 283.890900,248.335571 280.495819,248.388306 
	C275.794708,248.461319 272.224365,251.471390 272.486298,256.026245 
	C272.772797,261.008972 271.331360,265.762970 271.416077,270.714661 
	C271.606873,281.863403 269.887054,292.959351 270.343750,304.141205 
	C270.824799,315.919769 271.025330,327.709808 271.347839,340.492157 
M501.395081,151.700485 
	C502.734955,155.228577 506.278351,155.452286 509.075806,156.500229 
	C519.892456,160.552155 527.885864,169.806610 539.285034,172.746902 
	C539.984802,172.927399 540.809326,173.599472 541.084290,174.250443 
	C541.671143,175.639496 541.858948,177.318085 543.958130,176.880814 
	C544.515930,176.764618 545.302185,176.232269 545.414062,175.756989 
	C545.834473,173.969971 544.364441,173.087646 543.256470,172.157944 
	C536.608154,166.579391 528.955444,162.583618 521.330933,158.596161 
	C515.170776,155.374466 509.159943,151.772781 502.414490,149.807922 
	C501.409485,149.515182 498.815460,148.329498 501.395081,151.700485 
M162.720596,450.057007 
	C164.973206,461.453369 168.571320,472.380585 173.827271,483.032654 
	C175.516266,482.073181 177.540192,481.961121 177.018173,479.630188 
	C176.443527,477.064362 175.900696,474.446014 174.913620,472.026123 
	C171.383347,463.371582 165.948959,455.468079 164.870667,445.844147 
	C164.679703,444.139862 163.763763,442.485809 161.537354,442.293549 
	C160.669128,444.970032 161.850128,447.087280 162.720596,450.057007 
M479.351807,139.923340 
	C476.069733,139.957260 473.044342,137.223206 469.357544,138.676895 
	C471.518829,141.740356 471.571777,141.941208 474.501953,141.168564 
	C476.704254,140.587814 478.337402,140.923309 479.924530,142.497803 
	C484.325928,146.864136 489.398773,149.210831 496.320251,147.764679 
	C491.087860,143.738220 485.518921,142.025818 479.351807,139.923340 
M232.217087,192.685089 
	C237.468582,192.489471 241.459518,189.836090 245.209488,186.395370 
	C240.904037,182.870026 231.423965,185.412277 230.109833,190.171341 
	C229.782135,191.358032 230.716919,191.948761 232.217087,192.685089 
M183.927078,264.788361 
	C184.295959,263.324524 185.980560,262.066833 184.696365,260.292084 
	C180.621353,262.624603 178.357407,269.326202 180.578629,272.610748 
	C182.447998,270.552979 182.459824,267.736359 183.927078,264.788361 
M440.186676,135.065048 
	C441.071075,135.157944 442.074982,135.957260 442.974030,134.192017 
	C439.168579,134.269760 435.917511,131.116547 431.288055,133.437744 
	C434.294128,135.279556 437.043213,134.326660 440.186676,135.065048 
z"/>
<path fill="#000000" opacity="1.000000" stroke="none" 
	d="
M296.845886,520.437256 
	C294.483521,518.938782 292.443573,517.619446 290.275391,516.217163 
	C292.811554,512.658813 295.597534,509.992004 299.453766,511.917450 
	C301.602295,512.990173 303.086975,515.928711 302.322998,518.826965 
	C301.569519,521.685425 299.399078,521.477295 296.845886,520.437256 
z"/>
<path fill="#000000" opacity="1.000000" stroke="none" 
	d="
M284.348755,291.515381 
	C289.040894,291.835907 291.507721,294.263458 292.532654,299.107117 
	C285.574432,297.718536 288.022888,304.830750 284.497650,306.569702 
	C279.922577,305.004333 279.764404,301.283142 284.348755,291.515381 
z"/>
</svg>